<mxfile host="app.diagrams.net" modified="2023-10-24T20:01:14.266Z" agent="Mozilla/5.0 (Windows NT 10.0; Win64; x64) AppleWebKit/537.36 (KHTML, like Gecko) Chrome/117.0.0.0 Safari/537.36 Avast/117.0.0.0" version="22.0.7" etag="awgc50fgyJO7qU7yOgeA" type="github">
  <diagram name="Page-1" id="JgOl6zXqIS5X2lsM2joy">
    <mxGraphModel>
      <root>
        <mxCell id="0" />
        <mxCell id="1" parent="0" />
      </root>
    </mxGraphModel>
  </diagram>
</mxfile>
